<?xml version="1.0" standalone="no"?>
<!DOCTYPE svg PUBLIC "-//W3C//DTD SVG 20010904//EN"
 "http://www.w3.org/TR/2001/REC-SVG-20010904/DTD/svg10.dtd">
<svg version="1.0" xmlns="http://www.w3.org/2000/svg"
 width="433.000000pt" height="400.000000pt" viewBox="0 0 433.000000 577.000000"
 preserveAspectRatio="xMidYMid meet">

<g transform="translate(0.000000,577.000000) scale(0.100000,-0.100000)"
fill="#6e00b3" stroke="none">
<path d="M1865 4141 c-47 -5 -85 -16 -117 -34 -26 -15 -53 -27 -60 -27 -17 0
-115 -70 -122 -87 -3 -7 1 -10 9 -7 8 3 19 3 24 0 15 -10 1 -38 -15 -32 -10 4
-14 -3 -14 -22 0 -15 -4 -22 -8 -17 -14 20 -37 10 -40 -17 -2 -16 1 -28 7 -28
6 0 11 7 11 15 0 8 7 15 15 15 8 0 15 -3 15 -8 0 -12 -38 -41 -44 -35 -3 4 -6
-3 -6 -14 0 -31 -38 -153 -60 -194 -11 -20 -21 -50 -22 -65 -1 -16 -12 -46
-25 -66 -12 -20 -25 -49 -29 -64 -4 -15 -13 -39 -20 -53 -8 -14 -14 -32 -14
-39 0 -6 -17 -29 -38 -50 -43 -42 -53 -60 -59 -114 -4 -39 4 -47 25 -26 9 9
12 8 13 -5 1 -9 3 -21 4 -27 1 -5 3 -24 4 -41 1 -22 12 -42 35 -64 39 -36 61
-81 70 -146 10 -60 26 -99 42 -99 7 0 15 -8 19 -19 3 -10 13 -25 23 -34 15
-14 19 -14 38 1 11 10 26 26 32 37 8 14 11 16 12 5 0 -8 12 -39 27 -68 36 -72
63 -85 188 -88 l100 -3 -80 8 c-111 11 -139 19 -163 44 -27 28 -54 129 -38
139 6 4 13 2 17 -4 5 -7 16 -6 37 5 27 13 33 13 43 1 6 -8 16 -11 23 -7 6 4
21 6 32 5 28 -4 133 23 212 54 35 14 71 22 82 19 13 -4 22 0 29 13 6 11 22 23
37 26 33 9 52 -7 35 -27 -6 -8 -9 -21 -6 -29 4 -9 -1 -23 -10 -32 -9 -9 -14
-20 -11 -25 6 -10 -35 -106 -56 -132 -7 -8 -21 -20 -32 -26 -17 -9 -15 -11 13
-15 19 -3 36 1 42 9 6 7 8 13 3 13 -5 0 1 7 13 15 11 8 27 35 34 60 7 25 17
45 22 45 5 0 7 6 4 13 -7 19 12 47 28 41 11 -5 15 2 15 25 0 21 -5 31 -15 31
-20 0 -19 37 0 84 9 20 13 47 9 61 -4 18 -2 25 8 25 8 0 28 11 44 25 36 31 37
31 69 0 30 -30 31 -35 8 -35 -15 0 -15 -1 -2 -12 24 -20 41 -108 33 -167 -5
-42 -3 -55 11 -71 27 -29 45 -25 45 10 0 17 -5 30 -11 30 -7 0 -9 11 -6 30 4
16 2 32 -3 35 -19 12 -10 43 13 48 12 3 31 8 42 12 18 5 21 2 20 -29 -1 -19 2
-33 7 -30 4 3 20 -4 34 -15 15 -12 33 -21 41 -21 7 0 24 -6 36 -14 12 -8 40
-19 62 -25 99 -24 136 -37 155 -53 11 -10 24 -18 30 -18 5 0 14 -8 19 -17 6
-10 11 -13 11 -6 0 7 14 11 36 10 36 -2 37 -5 18 -51 -7 -17 -5 -17 14 2 27
27 38 28 52 3 15 -29 12 -180 -4 -248 -8 -32 -17 -95 -19 -139 -4 -75 -3 -81
14 -77 11 3 19 11 19 17 0 6 9 30 20 51 13 25 16 41 10 43 -7 3 -6 10 4 21 8
9 19 41 25 71 6 30 18 80 26 110 16 59 12 134 -10 160 -6 8 -15 23 -18 33 -7
19 -29 22 -58 7 -28 -16 -24 5 7 37 19 19 28 23 37 14 17 -17 32 -13 59 14 14
14 39 30 56 36 25 8 38 25 65 82 19 40 41 90 48 112 7 22 17 44 21 49 4 6 8
28 8 50 0 48 9 88 19 82 4 -3 7 4 8 14 1 11 -2 22 -8 25 -15 10 -10 45 7 45
12 0 14 7 10 28 -2 15 -8 48 -11 74 -3 26 -10 50 -16 53 -16 10 -10 25 15 36
l24 11 -19 34 c-15 28 -16 34 -4 34 20 0 7 30 -14 31 -12 0 -11 2 4 8 18 7 17
10 -13 25 -30 15 -32 19 -17 30 14 10 12 13 -20 25 -25 9 -35 17 -31 28 9 21
-44 81 -82 94 -27 9 -31 14 -21 25 9 12 5 14 -27 14 -22 0 -62 11 -89 24 -28
12 -74 29 -103 36 -28 8 -52 17 -52 22 0 4 -7 5 -16 1 -9 -3 -20 0 -25 8 -10
17 -120 19 -140 2 -23 -18 -110 -31 -189 -28 -107 4 -108 4 -91 14 16 10 6 31
-14 31 -7 0 -16 8 -19 18 -3 10 -16 24 -27 32 -12 8 -34 25 -49 38 -15 12 -32
22 -38 22 -5 0 -23 7 -38 15 -16 8 -36 15 -44 15 -8 0 -27 6 -41 14 -33 17
-173 26 -264 17z m-237 -333 c-2 -6 -10 -14 -16 -16 -7 -2 -10 2 -6 12 7 18
28 22 22 4z m720 -168 c12 -11 26 -20 31 -20 35 0 132 -92 110 -106 -8 -5 -7
-9 2 -16 11 -7 11 -11 2 -15 -7 -2 -13 -11 -13 -18 0 -7 -8 -16 -17 -18 -10
-3 1 -3 25 0 26 4 42 2 42 -5 0 -6 9 -14 20 -17 11 -3 20 -12 20 -19 0 -7 14
-25 30 -41 17 -16 30 -31 30 -34 0 -3 -18 -14 -39 -25 -21 -10 -56 -33 -77
-52 -49 -43 -80 -44 -98 -4 -3 8 -4 5 -2 -7 5 -27 -39 -79 -71 -85 -11 -1 -29
4 -39 13 -11 10 -28 19 -39 21 -15 2 -22 16 -30 58 -10 50 -9 57 8 72 19 17
19 18 1 25 -10 4 -19 2 -22 -5 -2 -6 -12 -22 -22 -34 -18 -22 -19 -22 -20 -3
0 11 4 27 10 35 5 8 5 19 1 25 -5 5 -11 23 -15 38 -5 21 -3 28 6 25 7 -3 15
-15 18 -29 3 -13 9 -19 13 -13 8 13 -10 81 -23 89 -6 4 -10 15 -10 25 0 11
-10 25 -22 31 l-23 12 23 10 c12 6 21 17 20 25 -2 9 7 18 20 21 13 3 24 11 25
16 7 45 86 61 125 25z m-254 -255 c5 -21 11 -24 31 -19 20 5 25 2 25 -14 0
-13 -14 -27 -40 -41 -38 -20 -40 -20 -49 -2 -6 10 -7 21 -4 25 4 4 6 22 5 41
-3 42 22 49 32 10z m590 -306 c-3 -5 -14 -9 -25 -9 -11 0 -18 -4 -15 -9 3 -5
-8 -14 -24 -20 -27 -9 -30 -8 -28 7 4 24 69 62 85 49 7 -5 10 -13 7 -18z
m-1159 -120 c-18 -5 -33 -5 -39 1 -7 7 4 10 30 9 39 -1 39 -1 9 -10z m575 -14
c0 -8 -4 -15 -9 -15 -13 0 -22 16 -14 24 11 11 23 6 23 -9z"/>
<path d="M2385 3450 c-69 -15 -125 -58 -125 -95 0 -16 31 1 63 35 22 23 47 40
60 40 25 0 53 15 41 22 -5 3 -22 2 -39 -2z"/>
<path d="M2342 2875 c0 -16 2 -22 5 -12 2 9 2 23 0 30 -3 6 -5 -1 -5 -18z"/>
<path d="M1395 2727 c-23 -35 -29 -106 -12 -152 l14 -40 7 39 c10 52 37 106
53 106 7 0 18 -12 24 -27 7 -17 13 -23 16 -15 8 21 -18 71 -47 92 -35 25 -36
25 -55 -3z"/>
<path d="M2410 2740 c0 -18 30 -70 40 -70 5 0 23 -15 39 -32 17 -18 31 -28 31
-23 0 6 65 10 175 10 168 0 175 1 197 23 l23 23 -35 -18 c-28 -14 -60 -18
-160 -18 -157 0 -201 12 -256 71 -42 45 -54 52 -54 34z"/>
<path d="M2352 2588 c-7 -7 -49 -11 -117 -10 -99 0 -106 -1 -124 -24 -23 -30
-37 -31 -44 -3 -8 31 -24 15 -25 -25 -1 -28 5 -39 34 -61 33 -25 39 -27 84
-18 36 7 54 6 72 -3 15 -9 62 -13 138 -13 l115 1 32 35 c30 33 31 36 17 58
-10 16 -21 21 -36 17 -13 -3 -24 1 -29 11 -11 18 -65 47 -89 47 -9 0 -21 -5
-28 -12z"/>
<path d="M1457 2552 c-35 -36 -37 -40 -22 -56 9 -9 15 -24 14 -33 -4 -21 18
-63 31 -63 6 0 10 8 10 18 0 10 5 23 12 30 12 12 13 88 0 121 -7 20 -10 19
-45 -17z"/>
<path d="M2870 2524 c0 -13 -7 -15 -32 -11 -18 2 -43 1 -55 -4 -13 -5 -35 -4
-53 2 -23 8 -34 8 -45 -1 -8 -7 -21 -10 -29 -7 -8 3 -22 0 -32 -8 -17 -12 -16
-14 18 -28 20 -8 45 -28 54 -44 10 -15 21 -30 24 -33 3 -3 11 -17 17 -32 7
-16 20 -28 28 -28 11 0 14 -6 9 -24 -6 -24 10 -44 21 -26 10 17 32 11 38 -10
4 -15 0 -20 -16 -21 -18 -1 -19 -2 -4 -6 14 -4 15 -8 7 -18 -18 -22 3 -24 35
-4 17 11 25 19 19 19 -7 0 -9 10 -7 25 3 13 8 24 12 23 28 -3 33 4 28 38 -4
23 -2 37 6 40 7 2 13 21 15 42 2 20 4 48 5 62 2 19 -3 26 -20 28 -22 3 -33 22
-13 22 6 0 10 5 10 10 0 6 -9 10 -20 10 -12 0 -20 -7 -20 -16z m-10 -144 c0
-5 -4 -10 -10 -10 -5 0 -10 5 -10 10 0 6 5 10 10 10 6 0 10 -4 10 -10z"/>
<path d="M1938 2483 c6 -2 18 -2 25 0 6 3 1 5 -13 5 -14 0 -19 -2 -12 -5z"/>
<path d="M1520 2376 c0 -9 5 -16 10 -16 6 0 10 4 10 9 0 6 -4 13 -10 16 -5 3
-10 -1 -10 -9z"/>
<path d="M1420 2372 c0 -12 48 -37 56 -29 3 3 -8 13 -25 22 -17 8 -31 12 -31
7z"/>
<path d="M2293 2312 c-36 -13 -46 -14 -67 -3 -34 18 -81 9 -160 -30 -36 -18
-68 -30 -71 -27 -3 3 -1 17 5 32 14 38 -9 44 -57 15 -87 -51 -102 -91 -68
-173 17 -40 30 -44 54 -18 9 9 25 22 36 28 25 14 85 6 85 -11 0 -7 10 -15 23
-19 12 -3 33 -16 47 -29 14 -13 34 -29 45 -36 17 -11 15 -11 -17 -6 -32 5 -38
3 -40 -12 -3 -36 3 -58 17 -66 8 -4 15 -13 15 -18 0 -15 39 -47 77 -65 66 -29
150 -10 203 46 33 36 46 37 104 9 49 -23 101 -22 101 1 0 8 -6 20 -14 26 -12
9 -10 14 9 27 13 9 27 14 30 12 4 -3 10 5 13 17 4 12 1 25 -5 29 -7 4 -4 10 7
16 11 7 14 13 7 17 -6 4 -9 12 -7 19 11 35 13 100 4 127 -18 50 -98 82 -95 38
1 -31 -33 -27 -88 10 -48 33 -104 54 -118 46 -5 -3 -14 -1 -21 4 -8 6 -27 4
-54 -6z m72 -135 c19 -10 19 -10 -1 -17 -11 -4 -35 -24 -54 -43 -19 -19 -42
-36 -50 -38 -21 -3 -80 21 -80 32 0 5 -6 9 -12 9 -7 0 -40 14 -72 30 -57 28
-58 30 -35 39 30 13 276 3 304 -12z m165 -87 c13 -9 13 -10 0 -10 -8 0 -22 5
-30 10 -13 9 -13 10 0 10 8 0 22 -5 30 -10z"/>
<path d="M2888 2253 c7 -3 16 -2 19 1 4 3 -2 6 -13 5 -11 0 -14 -3 -6 -6z"/>
<path d="M2866 2211 c-3 -5 1 -11 9 -15 8 -3 15 -1 15 4 0 13 -18 22 -24 11z"/>
<path d="M1710 1821 c0 -6 9 -47 21 -91 30 -115 118 -302 196 -417 154 -224
174 -248 230 -277 31 -15 53 -37 71 -68 40 -69 114 -178 121 -178 3 0 16 17
28 38 28 49 117 161 151 190 15 13 43 32 63 42 37 19 52 46 51 88 -1 16 3 22
12 19 7 -3 19 4 27 15 8 11 26 37 40 57 26 36 45 121 28 121 -11 0 -11 93 0
143 5 20 6 39 2 41 -4 3 -6 20 -5 38 3 33 -12 137 -21 146 -2 3 -10 0 -17 -5
-7 -6 -48 -29 -91 -52 -75 -40 -115 -52 -102 -31 3 6 -2 10 -12 11 -14 0 -13
2 5 9 18 8 21 15 16 35 -5 19 -2 25 10 25 24 0 19 27 -6 33 -11 3 -30 0 -41
-8 -12 -8 -31 -12 -44 -9 -15 4 -31 0 -43 -11 -11 -10 -20 -15 -20 -12 0 3
-18 -2 -40 -12 -28 -13 -57 -17 -95 -14 -46 3 -54 2 -49 -11 4 -11 -2 -19 -17
-25 -31 -11 -52 -3 -46 20 4 13 0 16 -16 13 -31 -6 -46 -24 -19 -24 13 0 22
-6 22 -16 0 -8 4 -13 9 -10 5 3 12 -1 15 -10 4 -10 2 -13 -6 -8 -7 5 -25 7
-41 6 -16 -1 -26 1 -24 5 3 5 -11 8 -31 9 -25 0 -61 16 -110 45 -40 24 -94 56
-119 70 -25 14 -59 38 -74 54 -16 16 -29 23 -29 16z m620 -192 c0 -5 -5 -9
-11 -9 -5 0 -7 -6 -3 -12 6 -9 3 -9 -9 1 -9 7 -24 10 -33 7 -21 -8 -65 4 -58
15 3 5 16 6 29 3 12 -3 25 -1 29 4 7 11 56 3 56 -9z m100 -13 c0 -2 -7 -7 -16
-10 -8 -3 -12 -2 -9 4 6 10 25 14 25 6z m-213 -12 c-3 -3 -12 -4 -19 -1 -8 3
-5 6 6 6 11 1 17 -2 13 -5z"/>
<path d="M714 57 c-2 -7 0 -24 5 -38 9 -23 10 -23 10 -2 1 12 4 28 7 37 3 9 1
16 -5 16 -7 0 -14 -6 -17 -13z"/>
</g>
</svg>
